<svg width="50" height="50" viewBox="0 0 50 50" fill="none" xmlns="http://www.w3.org/2000/svg">
<circle cx="25" cy="25.0005" r="25" fill="#F5F5F5"/>
<g clip-path="url(#clip0_1294_1840)">
<path d="M25.477 13.8892C25.9489 13.9906 26.433 14.0526 26.8899 14.1999C29.4726 15.0313 31.2153 17.5723 31.0287 20.2293C30.9707 21.0595 30.671 21.834 30.3608 22.5969C29.4135 24.9269 28.1647 27.0998 26.8858 29.2576C26.7206 29.5371 26.5582 29.8194 26.3791 30.0907C25.7194 31.0908 24.252 31.107 23.6247 30.0878C22.1435 27.6813 20.7219 25.2406 19.6477 22.6166C19.3213 21.8207 19.0134 21.0131 18.963 20.1429C18.8024 17.3694 20.8344 14.6782 23.543 14.0666C23.8671 13.9953 24.1958 13.9471 24.5222 13.8892H25.477ZM25.0068 17.0969C24.5258 17.0954 24.0552 17.2367 23.6545 17.5029C23.2538 17.7691 22.9411 18.1482 22.7561 18.5922C22.571 19.0362 22.5219 19.5251 22.6149 19.9971C22.7079 20.4691 22.9389 20.9028 23.2786 21.2434C23.6183 21.584 24.0514 21.8161 24.5231 21.9104C24.9948 22.0046 25.4839 21.9568 25.9284 21.7729C26.3729 21.589 26.7528 21.2773 27.0201 20.8773C27.2873 20.4773 27.4298 20.0071 27.4296 19.526C27.4298 18.8828 27.1748 18.2659 26.7206 17.8105C26.2663 17.355 25.65 17.0984 25.0068 17.0969Z" fill="black" fill-opacity="0.84"/>
<path d="M13.8901 31.6379C14.1284 30.5764 14.8925 29.9711 15.7772 29.4754C15.851 29.4326 15.9326 29.4048 16.0172 29.3937C16.1018 29.3826 16.1878 29.3884 16.2701 29.4107C16.3525 29.4331 16.4295 29.4716 16.4969 29.524C16.5643 29.5764 16.6205 29.6417 16.6625 29.716C16.8364 30.0186 16.7407 30.3833 16.4416 30.592C16.1424 30.8007 15.8207 30.9915 15.5517 31.239C15.0705 31.6802 15.0751 32.1005 15.5355 32.5637C16.0787 33.1104 16.7692 33.4125 17.4753 33.6757C18.8783 34.1974 20.3386 34.4688 21.8234 34.6334C23.4115 34.8102 25.0116 34.8524 26.6069 34.7598C28.7426 34.6381 30.8529 34.3604 32.8478 33.5423C33.3479 33.336 33.8204 33.0683 34.2543 32.7452C34.994 32.1933 34.9807 31.6535 34.2688 31.0732C34.0633 30.9141 33.8479 30.7681 33.6241 30.6361C33.2664 30.4134 33.1464 30.0384 33.3389 29.712C33.5313 29.3856 33.9314 29.2853 34.2804 29.5166C34.67 29.7746 35.0706 30.0349 35.4004 30.3607C36.3611 31.3109 36.3396 32.5284 35.3848 33.4884C34.8503 34.0258 34.2009 34.3847 33.5145 34.6821C32.1811 35.2619 30.7735 35.5819 29.3404 35.7987C27.6375 36.0527 25.9154 36.154 24.1945 36.1013C22.064 36.0434 19.9572 35.8039 17.9055 35.1963C17.066 34.9476 16.2497 34.6386 15.4995 34.1772C14.7238 33.696 14.0867 33.1035 13.8901 32.1585V31.6379Z" fill="black" fill-opacity="0.84"/>
<path d="M21.9485 29.8543C20.8986 30.0717 19.8452 30.2091 18.913 30.8978C19.128 31.0335 19.2933 31.1593 19.4765 31.2456C20.2122 31.6016 21.0041 31.7674 21.8047 31.895C23.7301 32.1887 25.6867 32.2164 27.6196 31.9773C28.5472 31.8671 29.4649 31.7019 30.3299 31.332C30.5805 31.2175 30.8175 31.0753 31.0366 30.9082C30.1606 30.1992 29.0985 30.074 28.0515 29.8508C28.2724 29.4734 28.4805 29.111 28.6996 28.7556C28.7222 28.7318 28.7501 28.7135 28.781 28.7022C28.8119 28.6909 28.8449 28.687 28.8776 28.6907C29.7316 28.8542 30.5745 29.0588 31.3352 29.4989C31.5606 29.6282 31.7677 29.7871 31.9509 29.9714C32.4929 30.5233 32.4836 31.2764 31.9416 31.8318C31.4992 32.2851 30.934 32.5275 30.3479 32.7211C29.1953 33.1049 28.0022 33.2788 26.7963 33.3669C25.3246 33.4829 23.8451 33.4557 22.3787 33.2858C21.178 33.1408 19.9866 32.9431 18.8886 32.4028C18.5909 32.257 18.3172 32.0666 18.077 31.8381C17.4937 31.2781 17.5071 30.5076 18.077 29.9331C18.4909 29.518 19.0098 29.2757 19.5553 29.1006C20.0493 28.9423 20.5583 28.831 21.0627 28.6948C21.2053 28.6559 21.2841 28.7 21.356 28.8298C21.5427 29.1707 21.7421 29.5018 21.9485 29.8543Z" fill="black" fill-opacity="0.84"/>
</g>
<defs>
<clipPath id="clip0_1294_1840">
<rect width="22.2222" height="22.2216" fill="white" transform="translate(13.8901 13.8892)"/>
</clipPath>
</defs>
</svg>
