<svg width="24" height="24" viewBox="0 0 24 24" fill="none" xmlns="http://www.w3.org/2000/svg">
<rect width="24" height="24" rx="7" fill="white"/>
<g clip-path="url(#clip0_1294_1294)">
<path d="M0 18.3221V5.66978C0.0180428 5.60342 0.0324624 5.53613 0.0431947 5.4682C0.329282 2.9122 2.23423 0.761855 4.73139 0.178413C5.04439 0.106422 5.3574 0.058845 5.67041 0H18.3221C18.3734 0.0164441 18.4256 0.0296168 18.4786 0.0394387C21.6149 0.400647 23.9731 2.9867 23.9875 6.1299C24.005 10.05 24.005 13.9701 23.9875 17.8901C23.9687 21.2368 21.2368 23.9681 17.8914 23.9856C13.9638 24.0069 10.0362 24.0069 6.10861 23.9856C4.82613 23.9766 3.57877 23.5655 2.54221 22.8103C1.50565 22.0551 0.732115 20.9937 0.330534 19.7757C0.175283 19.3055 0.107674 18.8072 0 18.3221ZM12.0194 5.95274H11.2682C9.63618 5.95274 8.00417 5.94898 6.37279 5.95274C5.55146 5.95274 4.93922 6.58876 4.96677 7.3838C4.99369 8.14816 5.60906 8.69842 6.44102 8.69842C9.50222 8.69842 12.5632 8.69842 15.624 8.69842C16.2875 8.69842 16.9517 8.70468 17.6153 8.69842C18.4398 8.68903 19.0501 8.06177 19.0207 7.26611C18.9938 6.5199 18.3841 5.95148 17.5934 5.95148C15.7362 5.94856 13.8782 5.94898 12.0194 5.95274ZM11.9944 18.0391H13.2126C14.6806 18.0391 16.1486 18.0435 17.6166 18.0391C18.4373 18.0354 19.0508 17.4012 19.0226 16.6074C18.995 15.8512 18.3816 15.2928 17.5715 15.2928C14.7524 15.2928 11.9334 15.2928 9.11472 15.2928C8.20074 15.2928 7.28739 15.2872 6.37404 15.2928C5.54959 15.2997 4.93985 15.9282 4.96802 16.7239C4.99431 17.4707 5.60342 18.0385 6.39533 18.0385C8.26209 18.0418 10.1286 18.042 11.995 18.0391H11.9944ZM11.9944 10.6253V10.6297C10.0894 10.6297 8.18384 10.6215 6.27889 10.634C5.61469 10.6384 5.08947 11.1349 4.97929 11.7972C4.93193 12.1089 4.99497 12.4274 5.15751 12.6976C5.32005 12.9679 5.57188 13.1728 5.86948 13.2771C6.0781 13.3395 6.29531 13.3685 6.51302 13.3628C10.1672 13.3678 13.8215 13.3678 17.4757 13.3628C17.5771 13.3628 17.6785 13.3628 17.78 13.3547C18.565 13.2977 19.1572 12.5196 18.9988 11.7483C18.8579 11.0491 18.3271 10.6253 17.569 10.6215C15.7118 10.6211 13.854 10.6224 11.9956 10.6253H11.9944Z" fill="#024E99"/>
</g>
<defs>
<clipPath id="clip0_1294_1294">
<rect width="24.0013" height="24" fill="white"/>
</clipPath>
</defs>
</svg>
