<svg width="64" height="64" viewBox="0 0 64 64" fill="none" xmlns="http://www.w3.org/2000/svg">
<circle cx="32" cy="32.0005" r="32" fill="#024E99"/>
<g clip-path="url(#clip0_1294_1838)">
<path d="M17.7773 44.037C17.8701 43.4215 17.9331 42.8014 18.06 42.1952C18.9427 37.9636 21.1985 34.75 24.7154 32.4888C25.2629 32.8642 25.7718 33.2481 26.311 33.5782C30.2352 35.9848 35.361 35.6224 38.9506 32.6873C39.1576 32.518 39.2963 32.5034 39.5203 32.6534C43.213 35.1287 45.4004 38.6166 46.0823 43.1169C46.1513 43.57 46.1743 44.0309 46.2218 44.5248C45.572 44.6725 44.9444 44.8226 44.3139 44.9564C39.3126 46.0189 34.258 46.3836 29.1633 46.1567C25.4279 45.998 21.7151 45.4753 18.0741 44.5956C17.976 44.5756 17.8769 44.561 17.7773 44.5517V44.037Z" fill="white"/>
<path d="M38.4042 24.4453C38.41 25.324 38.2478 26.1952 37.9269 27.0085C37.606 27.8218 37.1329 28.5611 36.5348 29.1836C35.9368 29.806 35.2257 30.2994 34.4426 30.635C33.6596 30.9706 32.8202 31.1419 31.9729 31.139C31.1256 31.136 30.2873 30.9589 29.5065 30.6178C28.7256 30.2767 28.0177 29.7785 27.4237 29.1519C26.8297 28.5252 26.3613 27.7827 26.0457 26.9672C25.7301 26.1516 25.5736 25.2793 25.5851 24.4006C25.5917 20.7415 28.4818 17.7648 32.0158 17.7779C33.7147 17.7856 35.3414 18.4919 36.539 19.7418C37.7366 20.9917 38.4073 22.6831 38.4042 24.4453Z" fill="white"/>
</g>
<defs>
<clipPath id="clip0_1294_1838">
<rect width="28.4444" height="28.4444" fill="white" transform="translate(17.7773 17.7778)"/>
</clipPath>
</defs>
</svg>
