<svg width="50" height="50" viewBox="0 0 50 50" fill="none" xmlns="http://www.w3.org/2000/svg">
<circle cx="25" cy="25.0005" r="25" fill="#F5F5F5"/>
<g clip-path="url(#clip0_1294_1839)">
<path d="M37.5 28.0314C37.3942 28.5058 37.2194 28.9454 36.8556 29.2878C36.4178 29.7005 35.8902 29.8735 35.2983 29.8742C28.4318 29.8742 21.5646 29.8742 14.6968 29.8742C13.378 29.8742 12.5031 28.9748 12.5018 27.6547C12.5006 25.6513 12.5 23.6486 12.5 21.6464C12.5037 20.5758 13.0863 19.7938 14.0946 19.523C14.3077 19.4714 14.5265 19.4476 14.7457 19.452C21.5801 19.4476 28.4146 19.4453 35.2494 19.4453C36.4569 19.4453 37.3233 20.2053 37.4762 21.2502C37.4817 21.2653 37.4898 21.2794 37.5 21.2918V28.0314ZM24.9765 28.8262C28.4101 28.8262 31.844 28.8262 35.2781 28.8262C36.0241 28.8262 36.4569 28.4245 36.4594 27.7036C36.4667 25.677 36.4667 23.6504 36.4594 21.6238C36.4594 20.9182 36.0314 20.5012 35.3277 20.5012C28.4432 20.5012 21.5587 20.5012 14.6742 20.5012C13.9674 20.4994 13.5443 20.9158 13.5394 21.6213C13.5327 23.6482 13.5363 25.675 13.5394 27.7012C13.5394 27.9849 13.6073 28.2484 13.8011 28.4685C14.0536 28.7559 14.3795 28.828 14.7457 28.8274C18.1566 28.8237 21.5668 28.8229 24.9765 28.825V28.8262Z" fill="black" fill-opacity="0.84"/>
<path d="M17.7129 23.7526C17.919 23.6352 18.0798 23.538 18.2412 23.453C18.5402 23.2977 18.8434 23.3698 18.9871 23.6236C19.1308 23.8773 19.044 24.1738 18.7597 24.3573C18.6025 24.4569 18.4387 24.5456 18.2479 24.6562C18.4705 24.7987 18.6814 24.9136 18.8697 25.0585C18.965 25.1363 19.0287 25.246 19.0492 25.3672C19.0697 25.4884 19.0454 25.6129 18.981 25.7176C18.9176 25.8188 18.8212 25.8949 18.708 25.9329C18.5948 25.9709 18.472 25.9685 18.3604 25.9261C18.2708 25.8878 18.1841 25.8428 18.1012 25.7916C17.9826 25.7268 17.8646 25.6602 17.7343 25.5862C17.7172 25.8558 17.7178 26.0986 17.6824 26.3364C17.6643 26.4502 17.6058 26.5537 17.5177 26.6279C17.4296 26.7021 17.3176 26.7421 17.2024 26.7405C17.0834 26.7444 16.967 26.7054 16.8743 26.6307C16.7816 26.556 16.7188 26.4504 16.6974 26.3333C16.6792 26.2297 16.6696 26.1248 16.6686 26.0197C16.6638 25.8846 16.6686 25.7494 16.6686 25.5727C16.4712 25.6852 16.3128 25.7788 16.1508 25.8668C15.8542 26.027 15.5461 25.964 15.4006 25.7164C15.2441 25.4505 15.3321 25.1527 15.6286 24.9656C15.7845 24.8672 15.9472 24.7785 16.1434 24.6648C15.9551 24.5541 15.7955 24.4643 15.6402 24.3676C15.3382 24.1799 15.2441 23.8871 15.3957 23.6223C15.5473 23.3576 15.8463 23.2971 16.1593 23.4658C16.3152 23.5496 16.465 23.6401 16.6436 23.7403C16.6619 23.4683 16.6625 23.2194 16.6998 22.9767C16.7217 22.8639 16.7828 22.7626 16.8724 22.6907C16.962 22.6188 17.0741 22.5811 17.189 22.5842C17.3035 22.5836 17.4148 22.6225 17.5039 22.6945C17.593 22.7665 17.6546 22.867 17.6781 22.9791C17.6985 23.0907 17.7091 23.2038 17.7099 23.3172C17.7172 23.4469 17.7129 23.5765 17.7129 23.7526Z" fill="black" fill-opacity="0.84"/>
<path d="M32.2885 25.5697C32.094 25.681 31.9363 25.7745 31.7749 25.8626C31.4771 26.0246 31.1702 25.9641 31.0228 25.7189C30.8645 25.4548 30.9513 25.1521 31.2448 24.9657C31.4013 24.8666 31.5652 24.7786 31.7645 24.6599C31.578 24.5505 31.4196 24.4612 31.2643 24.3652C30.9586 24.1775 30.8639 23.8883 31.0137 23.6218C31.1635 23.3552 31.4673 23.2941 31.7804 23.4616C31.9369 23.5453 32.0861 23.6364 32.2695 23.7392C32.2872 23.4683 32.2872 23.2201 32.3245 22.978C32.3451 22.8643 32.4058 22.7618 32.4956 22.6891C32.5853 22.6164 32.6982 22.5783 32.8137 22.5818C32.9282 22.5806 33.0396 22.6188 33.1294 22.6899C33.2192 22.761 33.2819 22.8607 33.3071 22.9725C33.327 23.0758 33.3379 23.1808 33.3395 23.2861C33.3444 23.4243 33.3395 23.5619 33.3395 23.7502C33.5229 23.6468 33.6702 23.56 33.8219 23.4769C34.1514 23.2934 34.4577 23.3509 34.6118 23.6175C34.7659 23.8841 34.6681 24.18 34.3471 24.3744C34.2016 24.4631 34.0536 24.5468 33.8745 24.652C34.0952 24.7926 34.3024 24.9076 34.4926 25.0512C34.5888 25.1284 34.6536 25.2379 34.6747 25.3594C34.6959 25.4808 34.672 25.6059 34.6075 25.711C34.5453 25.8129 34.4495 25.8901 34.3367 25.9293C34.2239 25.9686 34.1009 25.9675 33.9888 25.9262C33.9065 25.8915 33.827 25.8507 33.7509 25.8039C33.625 25.7348 33.4997 25.6639 33.3554 25.5832C33.3389 25.8516 33.3401 26.0937 33.3046 26.3303C33.2865 26.4483 33.2252 26.5553 33.1327 26.6308C33.0402 26.7062 32.9231 26.7447 32.8039 26.7387C32.689 26.7384 32.5778 26.698 32.4895 26.6244C32.4012 26.5509 32.3413 26.4488 32.3202 26.3358C32.3008 26.2241 32.2906 26.1111 32.2897 25.9977C32.2848 25.8699 32.2885 25.7428 32.2885 25.5697Z" fill="black" fill-opacity="0.84"/>
<path d="M23.4516 24.6672C23.6527 24.7834 23.8184 24.8714 23.9743 24.9729C24.2672 25.1612 24.3467 25.462 24.1816 25.7255C24.0343 25.9622 23.7347 26.0245 23.4479 25.8717C23.284 25.7836 23.1245 25.6882 22.9068 25.5617C22.9068 25.8154 22.9178 26.0288 22.9068 26.241C22.8885 26.535 22.6824 26.7301 22.4073 26.7393C22.1321 26.7484 21.9212 26.5497 21.8839 26.2617C21.876 26.1727 21.8735 26.0833 21.8766 25.9939C21.8766 25.8662 21.8766 25.7384 21.8766 25.566C21.6858 25.6742 21.5275 25.7671 21.3667 25.8558C21.0567 26.0251 20.7467 25.9622 20.6012 25.7029C20.4502 25.4339 20.54 25.1447 20.8415 24.957C20.9925 24.8622 21.1472 24.7736 21.341 24.6654C21.1288 24.5339 20.9332 24.4281 20.7553 24.2985C20.6479 24.2279 20.5716 24.1189 20.5419 23.9939C20.5123 23.8689 20.5315 23.7373 20.5957 23.626C20.7271 23.3887 21.0004 23.3007 21.2682 23.415C21.3644 23.462 21.458 23.5138 21.5489 23.5703L21.8772 23.7537C21.8772 23.5367 21.8735 23.3539 21.8772 23.1711C21.8864 22.8158 22.0949 22.5847 22.3981 22.5859C22.7014 22.5872 22.9038 22.8134 22.9135 23.1735C22.9184 23.3508 22.9135 23.5287 22.9135 23.7531C23.1251 23.6363 23.3018 23.5294 23.4858 23.4395C23.764 23.3037 24.0501 23.3783 24.1914 23.618C24.3393 23.8668 24.2654 24.1536 23.9982 24.337C23.8979 24.4061 23.7885 24.4593 23.6839 24.5204C23.6167 24.5602 23.5512 24.6036 23.4516 24.6672Z" fill="black" fill-opacity="0.84"/>
<path d="M26.5588 24.6611C26.349 24.5389 26.184 24.452 26.0274 24.3512C25.7425 24.1677 25.6606 23.8761 25.8073 23.6175C25.9541 23.3588 26.2567 23.2971 26.5551 23.4542C26.7196 23.5404 26.8773 23.6376 27.0876 23.7599C27.0876 23.538 27.084 23.3564 27.0876 23.1754C27.0968 22.8128 27.2925 22.5885 27.5982 22.5836C27.9039 22.5787 28.1179 22.8153 28.1246 23.1876C28.1276 23.3631 28.1246 23.5392 28.1246 23.755C28.3111 23.6493 28.4633 23.5606 28.6174 23.4756C28.9469 23.2971 29.2526 23.3582 29.4043 23.6266C29.5559 23.895 29.452 24.1861 29.131 24.3805C28.9867 24.4673 28.8399 24.5517 28.6571 24.6593C28.8363 24.7663 28.9867 24.8544 29.1352 24.9448C29.4617 25.1442 29.5602 25.4456 29.3908 25.7219C29.2367 25.9732 28.9347 26.0234 28.6186 25.8442C28.4651 25.7592 28.3129 25.6712 28.1252 25.5642C28.1252 25.7886 28.1295 25.9726 28.1252 26.156C28.1154 26.5107 27.9045 26.7406 27.6 26.7363C27.2955 26.732 27.1017 26.5125 27.0901 26.1695C27.0834 25.9861 27.0901 25.799 27.0901 25.5673C26.8963 25.6761 26.7385 25.7666 26.5789 25.854C26.2696 26.0234 25.9565 25.9622 25.811 25.7054C25.6569 25.434 25.7444 25.1478 26.0452 24.9589C26.1992 24.8641 26.3613 24.7761 26.5588 24.6611Z" fill="black" fill-opacity="0.84"/>
</g>
<defs>
<clipPath id="clip0_1294_1839">
<rect width="25" height="10.4295" fill="white" transform="translate(12.5 19.4453)"/>
</clipPath>
</defs>
</svg>
