<svg width="50" height="50" viewBox="0 0 50 50" fill="none" xmlns="http://www.w3.org/2000/svg">
<circle cx="25" cy="25.0005" r="25" fill="#F5F5F5"/>
<path d="M13.8901 22.2916V21.3366C13.9041 21.2884 13.915 21.2393 13.9229 21.1897C14.0461 19.7731 14.6382 18.4382 15.6056 17.3961C17.8869 14.8903 21.7569 14.5896 24.4009 16.7091C24.6075 16.8749 24.8027 17.0534 25.0116 17.2342L25.275 16.9897C25.7223 16.5659 26.2351 16.2171 26.7936 15.9567C29.2615 14.8404 31.5939 15.0958 33.718 16.7602C35.1562 17.8885 35.9299 19.422 36.0871 21.2522C36.2088 22.6658 35.8788 23.9944 35.306 25.2726C34.5266 27.0127 33.3644 28.4865 32.0542 29.8467C29.9961 31.9863 27.635 33.7494 25.1516 35.3592C25.05 35.4252 24.9766 35.4396 24.8647 35.3661C23.2238 34.2923 21.6226 33.164 20.131 31.8858C18.5389 30.5239 17.0588 29.0524 15.8627 27.3174C15.0437 26.1306 14.3963 24.8628 14.0841 23.4412C14.0009 23.0624 13.9538 22.675 13.8901 22.2916Z" fill="black" fill-opacity="0.84"/>
</svg>
